<svg width="16" height="16" viewBox="0 0 16 16" fill="none" xmlns="http://www.w3.org/2000/svg">
<path fill-rule="evenodd" clip-rule="evenodd" d="M13.356 6.75841C13.356 9.38715 11.226 11.5168 8.60021 11.5168C5.97443 11.5168 3.84446 9.38715 3.84446 6.75841C3.84446 4.12967 5.97443 2 8.60021 2C11.226 2 13.356 4.12967 13.356 6.75841ZM15.356 6.75841C15.356 10.491 12.3313 13.5168 8.60021 13.5168C7.09537 13.5168 5.70545 13.0246 4.58254 12.1923L1.70725 15.0688C1.3168 15.4594 0.683633 15.4595 0.293032 15.069C-0.0975688 14.6786 -0.0976933 14.0454 0.292754 13.6548L3.16857 10.7779C2.33654 9.65448 1.84446 8.26393 1.84446 6.75841C1.84446 3.02584 4.86911 0 8.60021 0C12.3313 0 15.356 3.02584 15.356 6.75841Z" fill="#0029FF"/>
</svg>
